<svg id="Layer_1" xmlns="http://www.w3.org/2000/svg" viewBox="0 0 800 280"><style>.st0{fill:#6ae5e1}.st1{fill:#eca700}.st2{fill:#ea9000}.st3{fill:#fbd000}.st4{fill:#fff}.st5{fill:#678691}.st6{fill:#c45314}</style><path class="st0" d="M0 -0.2H800V279.8H0z"/><path class="st1" d="M460.7 69.6H339.1s-6.8 34 4.4 69c8.2 26.2 22.6 43.4 40 49.8h-.2s9.8 10.6 10.4 22.6c.6 12-8.4 29-8.4 29h30.6s-9.2-17-8.4-29c.6-12 10.4-22.6 10.4-22.6h-1.8c17.4-6.4 31.8-23.6 40.2-49.8 11.4-35.2 4.4-69 4.4-69z"/><path class="st2" d="M399.9 173.8c-26.2 0-48.2-18.8-60.8-53.2 1 5.8 2.4 11.8 4.4 18 11 34.2 31.8 52.8 56.6 52.8s45.6-18.6 56.6-52.8c2-6 3.4-12 4.4-18-13 34.4-35 53.2-61.2 53.2z"/><path class="st3" d="M465.7 71.2c0 4.4-3.6 8-8 8h-116c-4.4 0-8-3.6-8-8V71c0-4.4 3.6-8 8-8h116c4.4 0 8 3.6 8 8.2zm-125.2 89.6c-1.2 0-2.4-.4-3.2-1.4-1.6-1.8-1.6-4.6.2-6.2 1.4-1.4 1.4-2.2.2-4-1.2-1.6-2.8-2-6.6-3-5-1.2-11.6-2.6-21-8.8-11.6-7.6-15.2-21.4-13.4-31.6 1.4-8.6 6.4-14.6 13.2-16.2 15.6-3.8 26.2 13.6 26.6 14.2 1.2 2 .6 4.8-1.6 6-2 1.2-4.8.6-6-1.6 0-.2-7.6-12.4-17-10.2-3.2.8-5.8 4.2-6.6 9.2-1.2 7.2 1.2 17.4 9.4 22.6 8 5.2 13.6 6.4 18.2 7.6 4.4 1 8.6 2 11.8 6.2 4 5.2 3.6 11.2-1.2 15.8-.8 1-1.8 1.4-3 1.4zm119 0c1.2 0 2.4-.4 3.2-1.4 1.6-1.8 1.6-4.6-.2-6.2-1.4-1.4-1.4-2.2-.2-4 1.2-1.6 2.8-2 6.6-3 5-1.2 11.6-2.6 21-8.8 11.6-7.6 15.2-21.4 13.4-31.6-1.4-8.6-6.4-14.6-13.2-16.2-15.6-3.8-26.2 13.6-26.6 14.2-1.2 2-.6 4.8 1.6 6 2 1.2 4.8.6 6-1.6 0-.2 7.6-12.4 17-10.2 3.2.8 5.8 4.2 6.6 9.2 1.2 7.2-1.2 17.4-9.4 22.6-8 5.2-13.6 6.4-18.2 7.6-4.4 1-8.6 2-11.8 6.2-4 5.2-3.6 11.2 1.2 15.8 1 1 2 1.4 3 1.4zm-101.8 94.4v-16h84v16"/><path class="st4" d="M429.1 159.2c-.6 0-1.2-.2-1.6-.8-.6-.8-.4-2.2.4-2.8 12.6-9.4 18-25.8 20.2-37.8.2-1 1.2-1.8 2.4-1.6 1 .2 1.8 1.2 1.6 2.4-3.4 18.2-11 32-21.8 40.2-.4.2-.8.4-1.2.4zm22.8-51.8c-.2 0-.2 0 0 0-1.2 0-2.2-1-2.2-2.2.6-7.2 0-12.4 0-12.4 0-1.2 1.2-2 2.4-2.2 1 0 1.6.8 1.6 1.8.2 2.6.6 5 0 12.8 0 1.4-.8 2.2-1.8 2.2zm-98.2 29.8c-.8 0-1.4-.4-1.8-1.2-8-16.8-6-43.8-5.8-45 0-1.2 1-2 2.2-1.8 1.2 0 2 1 1.8 2.2 0 .2-2 27 5.6 42.8.4 1 0 2.2-1 2.6-.4.2-.8.4-1 .4zm102-64h-86c-1.2 0-2-.8-2-2s1-2 2-2h86c1.2 0 2 .8 2 2s-1 2-2 2zm-24 176h-44c-1 0-2-.8-2-2s.8-2 2-2h44c1 0 2 .8 2 2s-.8 2-2 2z"/><path class="st5" d="M371.7 43.2c-4.4 0-8-3.6-8-7.8 0-4.4 3.6-7.8 8-7.8s8 3.6 8 7.8-3.6 7.8-8 7.8zm0-11.8c-2.2 0-4 1.8-4 4s1.8 4 4 4 4-1.8 4-4-1.8-4-4-4zm89 179.8c-5 0-9-4-9-9s4-9 9-9 9 4 9 9-4 9-9 9zm0-13.8c-2.6 0-4.8 2.2-4.8 4.8s2.2 4.8 4.8 4.8 4.8-2.2 4.8-4.8-2.2-4.8-4.8-4.8z"/><path class="st3" d="M400.7 99.2l7.2 14.4 15.8 2.4-11.6 11.2 2.8 16-14.2-7.6-14.2 7.6 2.6-16-11.4-11.2 15.8-2.4 7.2-14.4z"/><path class="st6" d="M482.3 257.2h-11.4c-1.2 0-2-.8-2-2s.8-2 2-2h11.4c1.2 0 2 .8 2 2s-.8 2-2 2z"/><path class="st4" d="M427.7 32.8c0-.8-.8-1.6-2-1.8l-3.8-.6c-1-.2-2.2-1.2-2.2-2.2l-.6-3.8c-.2-1-1-2-1.8-2s-1.6.8-1.8 2l-.6 3.8c-.2 1-1.2 2.2-2.2 2.2l-3.6.8c-1 .2-2 1-2 1.8s.8 1.6 2 1.8l3.8.6c1 .2 2.2 1.2 2.2 2.2l.6 3.6c.2 1 1 2 1.8 2s1.6-.8 1.6-2l.6-4.2c.2-1 1.2-2 2.2-2.2l3.6-.2c1.2-.2 2.2-1 2.2-1.8zm-69.2 154c0-.8-.8-1.6-2-1.8l-3.8-.6c-1-.2-2.2-1.2-2.2-2.2l-.6-3.8c-.2-1-1-2-1.8-2s-1.6.8-1.8 2l-.6 3.8c-.2 1-1.2 2.2-2.2 2.2l-3.6.8c-1 .2-2 1-2 1.8s.8 1.6 2 1.8l3.8.4c1 .2 2.2 1.2 2.2 2.2l.6 3.8c.2 1 1 2 1.8 2s1.6-.8 1.8-2l.6-4.2c.2-1 1.2-2 2.2-2.2l3.6-.2c1-.2 2-1 2-1.8z"/><path class="st6" d="M505.5 105.6c-1.6-9.4-7.2-16-14.8-17.8-1.6-.4-3.2-.6-4.8-.6-9.8 0-17.2 7.2-21 11.8.2-7.8-.2-14.8-.6-19.8h-.6c2.4-1.8 4-4.8 4-8.2 0-5.6-4.4-9.8-10-9.8h-116c-5.6 0-10 4.2-10 10 0 3.2 1.6 6.2 4 8-.4 5-.8 11.8-.8 19.4-3.8-4.6-11.2-11.4-20.8-11.4-1.6 0-3.2.2-4.8.6-7.6 1.8-13.2 8.4-14.8 17.8-1.8 11 1.8 25.6 14.2 33.6 9.6 6.2 16.6 7.8 21.6 9 3.8.8 4.8 1.2 5.6 2.2.4.4.4.6.6.8 0 0-.2.2-.4.6-2.6 2.4-2.8 6.6-.2 9 1.2 1.2 3 2 4.6 2 1.6 0 3.2-.6 4.4-1.8 1.6-1.4 2.8-3.2 3.4-4.8 8.4 16.8 20 28.2 33.6 33.6.6.6 9.4 10.4 10 21.4.4 9-5 21.4-7.2 26h-27c-1.2 0-2 .8-2 2v14h-37.2c-1.2 0-2 .8-2 2s.8 2 2 2h140c1.2 0 2-.8 2-2s-.8-2-2-2h-14.8v-14c0-1.2-.8-2-2-2h-25c-2.2-4.6-7.8-17-7.2-26 .6-11.2 10.4-22 10.4-22.2 12.8-5.6 23.6-17 31.6-33 .8 1.8 2 3.6 3.6 5.2 1.2 1.2 2.8 1.8 4.4 1.8 1.8 0 3.4-.8 4.6-2 2.4-2.6 2.4-6.6-.2-9-.2-.6-.4-.8-.4-.8l.4-.8c.8-1 1.8-1.4 5.6-2.2 5-1.2 12-2.8 21.6-9 12.6-8 16.2-22.6 14.4-33.6zm-41.6 6l.2.2c1 .6 2.2 1 3.2 1 2.2 0 4.4-1.2 5.6-3.2 0 0 6-9.6 13-9.6.6 0 1.2 0 1.8.2 2.4.6 4.4 3.4 5 7.6 1.2 6.6-1 15.8-8.6 20.6-7.6 5-13.2 6.2-17.6 7.2-2.8.6-5.6 1.2-8.2 2.8 3.2-9.2 4.8-18.2 5.6-26.8zM335.7 71c0-3.4 2.6-6 6-6h116c3.4 0 6 2.6 6 6.2 0 3.4-2.6 6-6 6h-116c-3.4 0-6-2.6-6-6.2zm.2 40.8c.8 8.4 2.6 17.4 5.4 26.4-2.6-1.4-5.2-2-7.8-2.6-4.4-1-9.8-2.2-17.6-7.2-7.6-4.8-9.8-14.2-8.6-20.6.8-4 2.6-7 5-7.6.6-.2 1.2-.2 1.8-.2 7 0 12.8 9.4 13 9.6 1.2 2 3.2 3.2 5.6 3.2 1 0 2.2-.4 3.2-1zm6.2 46.4c-1 .8-2.6.8-3.4-.2-1-1-.8-2.6.2-3.4 2.8-2.6 1.6-5 .4-6.6-1.8-2.2-4-2.8-7.8-3.6-4.8-1-11.4-2.6-20.4-8.4-11-7-14.2-20-12.4-29.6 1.4-7.8 5.8-13.2 11.8-14.6 1.4-.4 2.6-.4 4-.4 12 0 20.2 13.2 20.4 13.8.6 1.2.4 2.6-.8 3.4-1.2.6-2.6.2-3.4-.8-.2-.4-7-11.4-16.4-11.4-1 0-1.8.2-2.8.4-4 1-7.2 5-8 10.8-1.4 7.8 1.4 18.8 10.4 24.8 8.2 5.4 14.2 6.8 18.8 7.8 4.2 1 7.8 1.8 10.6 5.4.4.6.8 1 1 1.6.2.8.6 1.4.8 2.2.8 2.8 0 6-3 8.8zm97.6 95h-80v-12h80v12zM405.5 211c-.4 9 4.2 20.4 6.8 26.2h-23.2c2.8-5.8 7.4-17.2 6.8-26.2-.4-7.6-4.2-14.6-7.2-19 3.6.8 7.4 1.2 11.2 1.2 4.6 0 9-.6 13.2-1.8-3 4.4-7.2 11.6-7.6 19.6zm-5.6-21.8c-21.8 0-40-15-51-41.6-.2-.8-.6-1.4-.8-2.2-1-2.4-1.8-4.8-2.6-7.4-7.2-22.2-6.8-44.2-5.8-57 .6.2 1.2.2 2 .2h116c.8 0 1.8-.2 2.6-.4 1.2 12.6 1.4 34.8-5.6 57-10.6 32.8-30.6 51.4-54.8 51.4zm89.2-53.2c-9 5.8-15.6 7.4-20.4 8.4-3.8.8-6.2 1.4-7.8 3.6-1.2 1.6-2.4 4 .4 6.6 1 1 1 2.4.2 3.4s-2.4 1-3.4.2c-4-3.8-4.4-8.6-1-13 2.8-3.6 6.4-4.4 10.6-5.4 4.6-1 10.6-2.4 18.8-7.8 9-5.8 11.6-17 10.4-24.8-1-5.8-4-9.8-8-10.8-.8-.2-1.8-.4-2.8-.4-9.2 0-16 11-16.4 11.4-.6 1.2-2.2 1.6-3.4.8-.6-.4-1-.8-1.2-1.4-.2-.6 0-1.2.2-1.8 0-.2 8.4-13.8 20.4-13.8 1.2 0 2.6.2 4 .4 6 1.4 10.4 7 11.8 14.6 1.8 9.8-1.6 22.6-12.4 29.8z"/><path class="st4" d="M459.3 71.8c0-1-.8-2-2-2.2l-11.8-2.2c-1-.2-2.2-1.2-2.4-2.4l-2.2-11.8c-.2-1-1.2-2-2.2-2s-2 .8-2.2 2l-1.8 12c-.2 1-1.2 2.2-2.4 2.4l-11.8 2.2c-1 .2-2 1.2-2 2.2s.8 2 2 2l11.8 1.6c1 .2 2.2 1.2 2.4 2.2l2.2 12.6c.2 1 1.2 2 2.2 2s2-.8 2.2-2l2.2-12.6c.2-1 1.2-2 2.4-2.2l11.8-1.6c.8-.2 1.6-1.2 1.6-2.2z"/></svg>