<svg xmlns="http://www.w3.org/2000/svg" x="0" y="0" viewBox="0 0 128 128" enable-background="new 0 0 128 128" width="128" height="128"><title>cup</title><g class="nc-icon-wrapper"><circle class="st0" cx="64" cy="64" r="64" fill="#6AE5E1"/><path class="st1" d="M94.5 34.2H33.7s-3.4 17 2.2 34.5c4.1 13.1 11.3 21.7 20 24.9h-.1s4.9 5.3 5.2 11.3c.3 6-4.2 14.5-4.2 14.5h15.3s-4.6-8.5-4.2-14.5c.3-6 5.2-11.3 5.2-11.3h-.9c8.7-3.2 15.9-11.8 20.1-24.9 5.7-17.6 2.2-34.5 2.2-34.5z" fill="#ECA700"/><path class="st2" d="M64.1 86.3C51 86.3 40 76.9 33.7 59.7c.5 2.9 1.2 5.9 2.2 9 5.5 17.1 15.9 26.4 28.3 26.4S87 85.8 92.5 68.7c1-3 1.7-6 2.2-9-6.5 17.2-17.5 26.6-30.6 26.6z" fill="#EA9000"/><path class="st3" d="M97 35c0 2.2-1.8 4-4 4H35c-2.2 0-4-1.8-4-4v-.1c0-2.2 1.8-4 4-4h58c2.2 0 4 1.8 4 4.1z" fill="#FBD000"/><path class="st3" d="M34.4 79.8c-.6 0-1.2-.2-1.6-.7-.8-.9-.8-2.3.1-3.1.7-.7.7-1.1.1-2-.6-.8-1.4-1-3.3-1.5-2.5-.6-5.8-1.3-10.5-4.4-5.8-3.8-7.6-10.7-6.7-15.8.7-4.3 3.2-7.3 6.6-8.1 7.8-1.9 13.1 6.8 13.3 7.1.6 1 .3 2.4-.8 3-1 .6-2.4.3-3-.8 0-.1-3.8-6.2-8.5-5.1-1.6.4-2.9 2.1-3.3 4.6-.6 3.6.6 8.7 4.7 11.3 4 2.6 6.8 3.2 9.1 3.8 2.2.5 4.3 1 5.9 3.1 2 2.6 1.8 5.6-.6 7.9-.4.5-.9.7-1.5.7z" fill="#FBD000"/><path class="st3" d="M93.9 79.8c.6 0 1.2-.2 1.6-.7.8-.9.8-2.3-.1-3.1-.7-.7-.7-1.1-.1-2 .6-.8 1.4-1 3.3-1.5 2.5-.6 5.8-1.3 10.5-4.4 5.8-3.8 7.6-10.7 6.7-15.8-.7-4.3-3.2-7.3-6.6-8.1-7.8-1.9-13.1 6.8-13.3 7.1-.6 1-.3 2.4.8 3 1 .6 2.4.3 3-.8 0-.1 3.8-6.2 8.5-5.1 1.6.4 2.9 2.1 3.3 4.6.6 3.6-.6 8.7-4.7 11.3-4 2.6-6.8 3.2-9.1 3.8-2.2.5-4.3 1-5.9 3.1-2 2.6-1.8 5.6.6 7.9.5.5 1 .7 1.5.7z" fill="#FBD000"/><path class="st3" fill="#FBD000" d="M43 127v-8h42v8"/><path class="st4" d="M78.7 79c-.3 0-.6-.1-.8-.4-.3-.4-.2-1.1.2-1.4 6.3-4.7 9-12.9 10.1-18.9.1-.5.6-.9 1.2-.8.5.1.9.6.8 1.2-1.7 9.1-5.5 16-10.9 20.1-.2.1-.4.2-.6.2z" fill="#FFF"/><path class="st4" d="M90.1 53.1c-.1 0-.1 0 0 0-.6 0-1.1-.5-1.1-1.1.3-3.6 0-6.2 0-6.2 0-.6.6-1 1.2-1.1.5 0 .8.4.8.9.1 1.3.3 2.5 0 6.4 0 .7-.4 1.1-.9 1.1z" fill="#FFF"/><path class="st4" d="M41 68c-.4 0-.7-.2-.9-.6-4-8.4-3-21.9-2.9-22.5 0-.6.5-1 1.1-.9.6 0 1 .5.9 1.1 0 .1-1 13.5 2.8 21.4.2.5 0 1.1-.5 1.3-.2.1-.4.2-.5.2z" fill="#FFF"/><path class="st4" d="M92 36H49c-.6 0-1-.4-1-1s.5-1 1-1h43c.6 0 1 .4 1 1s-.5 1-1 1z" fill="#FFF"/><path class="st4" d="M80 124H58c-.5 0-1-.4-1-1s.4-1 1-1h22c.5 0 1 .4 1 1s-.4 1-1 1z" fill="#FFF"/><path class="st5" d="M50 21c-2.2 0-4-1.8-4-3.9 0-2.2 1.8-3.9 4-3.9s4 1.8 4 3.9c0 2.1-1.8 3.9-4 3.9zm0-5.9c-1.1 0-2 .9-2 2s.9 2 2 2 2-.9 2-2-.9-2-2-2z" fill="#678691"/><path class="st5" d="M94.5 105c-2.5 0-4.5-2-4.5-4.5s2-4.5 4.5-4.5 4.5 2 4.5 4.5-2 4.5-4.5 4.5zm0-6.9c-1.3 0-2.4 1.1-2.4 2.4s1.1 2.4 2.4 2.4c1.3 0 2.4-1.1 2.4-2.4s-1.1-2.4-2.4-2.4z" fill="#678691"/><path class="st3" fill="#FBD000" d="M64.5 49l3.6 7.2 7.9 1.2-5.8 5.6 1.4 8-7.1-3.8-7.1 3.8 1.3-8-5.7-5.6 7.9-1.2z"/><path class="st6" d="M105.3 128h-5.7c-.6 0-1-.4-1-1s.4-1 1-1h5.7c.6 0 1 .4 1 1s-.4 1-1 1z" fill="#C45314"/><path class="st4" d="M78 15.8c0-.4-.4-.8-1-.9l-1.9-.3c-.5-.1-1.1-.6-1.1-1.1l-.3-1.9c-.1-.5-.5-1-.9-1s-.8.4-.9 1l-.3 1.9c-.1.5-.6 1.1-1.1 1.1l-1.8.4c-.5.1-1 .5-1 .9s.4.8 1 .9l1.9.3c.5.1 1.1.6 1.1 1.1L72 20c.1.5.5 1 .9 1s.8-.4.8-1l.3-2.1c.1-.5.6-1 1.1-1.1l1.8-.1c.6-.1 1.1-.5 1.1-.9z" fill="#FFF"/><path class="st4" d="M43.4 92.8c0-.4-.4-.8-1-.9l-1.9-.3c-.5-.1-1.1-.6-1.1-1.1l-.3-1.9c-.1-.5-.5-1-.9-1s-.8.4-.9 1l-.3 1.9c-.1.5-.6 1.1-1.1 1.1l-1.8.4c-.5.1-1 .5-1 .9s.4.8 1 .9l1.9.2c.5.1 1.1.6 1.1 1.1l.3 1.9c.1.5.5 1 .9 1s.8-.4.9-1l.3-2.1c.1-.5.6-1 1.1-1.1l1.8-.1c.5-.1 1-.5 1-.9z" fill="#FFF"/><path class="st6" d="M116.9 52.2c-.8-4.7-3.6-8-7.4-8.9-.8-.2-1.6-.3-2.4-.3-4.9 0-8.6 3.6-10.5 5.9.1-3.9-.1-7.4-.3-9.9H96c1.2-.9 2-2.4 2-4.1 0-2.8-2.2-4.9-5-4.9H35c-2.8 0-5 2.1-5 5 0 1.6.8 3.1 2 4-.2 2.5-.4 5.9-.4 9.7C29.7 46.4 26 43 21.2 43c-.8 0-1.6.1-2.4.3-3.8.9-6.6 4.2-7.4 8.9-.9 5.5.9 12.8 7.1 16.8 4.8 3.1 8.3 3.9 10.8 4.5 1.9.4 2.4.6 2.8 1.1.2.2.2.3.3.4 0 0-.1.1-.2.3-1.3 1.2-1.4 3.3-.1 4.5.6.6 1.5 1 2.3 1 .8 0 1.6-.3 2.2-.9.8-.7 1.4-1.6 1.7-2.4 4.2 8.4 10 14.1 16.8 16.8.3.3 4.7 5.2 5 10.7.2 4.5-2.5 10.7-3.6 13H43c-.6 0-1 .4-1 1v7H23.4c-.6 0-1 .4-1 1s.4 1 1 1h70c.6 0 1-.4 1-1s-.4-1-1-1H86v-7c0-.6-.4-1-1-1H72.5c-1.1-2.3-3.9-8.5-3.6-13 .3-5.6 5.2-11 5.2-11.1 6.4-2.8 11.8-8.5 15.8-16.5.4.9 1 1.8 1.8 2.6.6.6 1.4.9 2.2.9.9 0 1.7-.4 2.3-1 1.2-1.3 1.2-3.3-.1-4.5-.1-.3-.2-.4-.2-.4l.2-.4c.4-.5.9-.7 2.8-1.1 2.5-.6 6-1.4 10.8-4.5 6.3-4 8.1-11.3 7.2-16.8zm-20.8 3l.1.1c.5.3 1.1.5 1.6.5 1.1 0 2.2-.6 2.8-1.6 0 0 3-4.8 6.5-4.8.3 0 .6 0 .9.1 1.2.3 2.2 1.7 2.5 3.8.6 3.3-.5 7.9-4.3 10.3-3.8 2.5-6.6 3.1-8.8 3.6-1.4.3-2.8.6-4.1 1.4 1.6-4.6 2.4-9.1 2.8-13.4zM32 34.9c0-1.7 1.3-3 3-3h58c1.7 0 3 1.3 3 3.1 0 1.7-1.3 3-3 3H35c-1.7 0-3-1.3-3-3.1zm.1 20.4c.4 4.2 1.3 8.7 2.7 13.2-1.3-.7-2.6-1-3.9-1.3-2.2-.5-4.9-1.1-8.8-3.6-3.8-2.4-4.9-7.1-4.3-10.3.4-2 1.3-3.5 2.5-3.8.3-.1.6-.1.9-.1 3.5 0 6.4 4.7 6.5 4.8.6 1 1.6 1.6 2.8 1.6.5 0 1.1-.2 1.6-.5zm3.1 23.2c-.5.4-1.3.4-1.7-.1-.5-.5-.4-1.3.1-1.7 1.4-1.3.8-2.5.2-3.3-.9-1.1-2-1.4-3.9-1.8-2.4-.5-5.7-1.3-10.2-4.2-5.5-3.5-7.1-10-6.2-14.8.7-3.9 2.9-6.6 5.9-7.3.7-.2 1.3-.2 2-.2 6 0 10.1 6.6 10.2 6.9.3.6.2 1.3-.4 1.7-.6.3-1.3.1-1.7-.4-.1-.2-3.5-5.7-8.2-5.7-.5 0-.9.1-1.4.2-2 .5-3.6 2.5-4 5.4-.7 3.9.7 9.4 5.2 12.4 4.1 2.7 7.1 3.4 9.4 3.9 2.1.5 3.9.9 5.3 2.7.2.3.4.5.5.8.1.4.3.7.4 1.1.4 1.4 0 3-1.5 4.4zM84 126H44v-6h40v6zm-17.1-21.1c-.2 4.5 2.1 10.2 3.4 13.1H58.7c1.4-2.9 3.7-8.6 3.4-13.1-.2-3.8-2.1-7.3-3.6-9.5 1.8.4 3.7.6 5.6.6 2.3 0 4.5-.3 6.6-.9-1.5 2.2-3.6 5.8-3.8 9.8zM64.1 94c-10.9 0-20-7.5-25.5-20.8-.1-.4-.3-.7-.4-1.1-.5-1.2-.9-2.4-1.3-3.7-3.6-11.1-3.4-22.1-2.9-28.5.3.1.6.1 1 .1h58c.4 0 .9-.1 1.3-.2.6 6.3.7 17.4-2.8 28.5C86.2 84.7 76.2 94 64.1 94zm44.6-26.6c-4.5 2.9-7.8 3.7-10.2 4.2-1.9.4-3.1.7-3.9 1.8-.6.8-1.2 2 .2 3.3.5.5.5 1.2.1 1.7s-1.2.5-1.7.1c-2-1.9-2.2-4.3-.5-6.5 1.4-1.8 3.2-2.2 5.3-2.7 2.3-.5 5.3-1.2 9.4-3.9 4.5-2.9 5.8-8.5 5.2-12.4-.5-2.9-2-4.9-4-5.4-.4-.1-.9-.2-1.4-.2-4.6 0-8 5.5-8.2 5.7-.3.6-1.1.8-1.7.4-.3-.2-.5-.4-.6-.7-.1-.3 0-.6.1-.9 0-.1 4.2-6.9 10.2-6.9.6 0 1.3.1 2 .2 3 .7 5.2 3.5 5.9 7.3.9 4.9-.8 11.3-6.2 14.9z" fill="#C45314"/><path class="st4" d="M93.8 35.3c0-.5-.4-1-1-1.1l-5.9-1.1c-.5-.1-1.1-.6-1.2-1.2L84.6 26c-.1-.5-.6-1-1.1-1-.5 0-1 .4-1.1 1l-.9 6c-.1.5-.6 1.1-1.2 1.2l-5.9 1.1c-.5.1-1 .6-1 1.1 0 .5.4 1 1 1l5.9.8c.5.1 1.1.6 1.2 1.1l1.1 6.3c.1.5.6 1 1.1 1 .5 0 1-.4 1.1-1l1.1-6.3c.1-.5.6-1 1.2-1.1l5.9-.8c.4-.1.8-.6.8-1.1z" fill="#FFF"/></g></svg>