<svg xmlns="http://www.w3.org/2000/svg" width="512" height="512" viewBox="0 0 612.001 612"><path d="M598.04 157.06l-73.495-92.207a36.59 36.59 0 0 0-28.613-13.784H116.068a36.588 36.588 0 0 0-28.612 13.783L13.96 157.06C6.281 166.692 0 184.653 0 196.971v318.223c0 25.261 20.477 45.738 45.738 45.738h520.524c25.262 0 45.738-20.478 45.739-45.738V196.971c-.001-12.318-6.282-30.279-13.961-39.911zM318.626 425.149c-4.667 12.229-2.834 28.913 2.524 43.209 29.258 1.801 51.067 8.675 51.067 16.902 0 9.597-29.647 17.377-66.218 17.377-36.571 0-66.218-7.779-66.218-17.377 0-8.228 21.81-15.102 51.067-16.902 5.358-14.296 7.192-30.98 2.524-43.209-73.438-4.81-95.998-51.423-95.998-81.229 0-37.856 16.243-83.112 26.397-105.485l76.453-.425-25.349 69.989 31.927.886-14.184 53.883 47.376-75.038h-26.402l21.602-49.721h52.841c10.142 22.229 26.586 67.826 26.586 105.911.003 29.805-22.557 76.419-95.995 81.229zM37.979 156.279l24.338-30.536h166.061L244.765 98.8H83.793l17.969-22.544a18.203 18.203 0 0 1 14.306-6.892h379.864a18.206 18.206 0 0 1 14.308 6.892L528.208 98.8h-163.84l9.147 26.943h176.168l24.339 30.536H37.979z" fill="#FFF" fill-opacity="0.1" /></svg>