<svg xmlns="http://www.w3.org/2000/svg" width="512" height="512" viewBox="0 0 612 612"><path d="M119.645 4.007h170.841l-15.918 127.311H0L90.15 18.215a37.721 37.721 0 0 1 29.495-14.208zm372.71 0h-170.84l15.918 127.311H612L521.85 18.215a37.72 37.72 0 0 0-29.495-14.208zM612 153.153v407.693c0 26.039-21.108 47.147-47.146 47.147H47.147C21.109 607.993 0 586.885 0 560.846V153.153h274.568v160.858h62.864V153.153H612zM495.325 430.939h12.301v94.629a7.56 7.56 0 0 0 7.561 7.561h18.901a7.56 7.56 0 0 0 7.561-7.561v-94.629h12.302c5.821 0 9.458-6.301 6.548-11.342l-29.315-50.766c-2.911-5.039-10.187-5.039-13.096.001l-29.31 50.766c-2.911 5.042.727 11.341 6.547 11.341zm-113.417 0h12.302v94.629a7.56 7.56 0 0 0 7.561 7.561h18.901a7.56 7.56 0 0 0 7.561-7.561v-94.629h12.301c5.819 0 9.458-6.301 6.547-11.342l-29.315-50.766c-2.911-5.039-10.186-5.039-13.096.001l-29.31 50.766c-2.91 5.042.728 11.341 6.548 11.341zm192.938 124.145a3.78 3.78 0 0 0-3.781-3.78H362.448a3.78 3.78 0 0 0-3.779 3.78v11.341a3.78 3.78 0 0 0 3.779 3.781h208.616a3.781 3.781 0 0 0 3.781-3.781v-11.341z" fill="#FFF" fill-opacity="0.1" /></svg>