<svg id="Layer_1" xmlns="http://www.w3.org/2000/svg" viewBox="0 0 800 280"><style>.st0{fill:#fbd000}.st1{fill:#00b3f9}.st2{fill:#0798e8}.st3{fill:#fff}.st4{opacity:.3;fill:#00b3f9;enable-background:new}.st5{fill:#0c508e}.st6,.st7{opacity:.5;fill:#fff;enable-background:new}.st7{fill:#0c508e}</style><path class="st0" d="M-0.2 -0.2H799.8V279.8H-0.2z"/><path class="st1" d="M459.6 222.6c0 5.6-4.4 10-10 10H336.8c-5.6 0-10-4.4-10-10v-80.4c0-5.6 4.4-10 10-10h112.8c5.6 0 10 4.4 10 10v80.4z"/><path class="st2" d="M449.6 220.6H336.8c-5.6 0-10-5.8-10-11.4v13.4c0 5.6 4.4 10 10 10h112.8c5.6 0 10-4.4 10-10v-13.4c0 5.6-4.6 11.4-10 11.4zm-122.8-78.4v24.4h132.8v-24.4c0-5.6-4.4-10-10-10H336.8c-5.4 0-10 4.4-10 10z"/><path class="st3" d="M379 132.2h29.8v100.6H379V132.2z"/><path class="st4" d="M379 132.2h30v34.4h-30v-34.4z"/><path class="st3" d="M348.8 110l13.4-28 29.4 19.6h4.4L425.4 82l13.6 28"/><path class="st4" d="M396 102.4h-4.4l-2.8-1.8h-35.2l-4.8 10.2H439l-5-10.2h-35.2l-2.8 1.8z"/><path class="st3" d="M343 106.6h100v23.8H343v-23.8z"/><circle class="st3" cx="392.8" cy="120.8" r="21.6"/><path class="st1" d="M465.6 143.6c0 5.6-4.4 10-10 10H330.8c-5.6 0-10-4.4-10-10V129c0-5.6 4.4-10 10-10h124.8c5.6 0 10 4.4 10 10v14.6z"/><path class="st3" d="M373 119h40v33.4h-40V119z"/><path class="st5" d="M463 230.6H309c-1.2 0-2 .8-2 2s1 2 2 2h154c1.2 0 2-.8 2-2 0-1-1-2-2-2zm16 4h-8c-1.2 0-2-.8-2-2s.8-2 2-2h8c1.2 0 2 1 2 2 0 1.2-.8 2-2 2z"/><path class="st3" d="M331 86.6c-4.4 0-8-3.6-8-8s3.6-8 8-8 8 3.6 8 8-3.6 8-8 8zm0-12.2c-2.4 0-4.2 2-4.2 4.2 0 2.4 2 4.2 4.2 4.2 2.4 0 4.2-2 4.2-4.2 0-2.4-1.8-4.2-4.2-4.2zm-26 114.2c-4.4 0-8-3.6-8-8s3.6-8 8-8 8 3.6 8 8-3.6 8-8 8zm0-12.2c-2.4 0-4.2 2-4.2 4.2 0 2.4 2 4.2 4.2 4.2 2.4 0 4.2-2 4.2-4.2 0-2.4-1.8-4.2-4.2-4.2zm176 28.2c-4.4 0-8-3.6-8-8s3.6-8 8-8 8 3.6 8 8-3.6 8-8 8zm0-12.2c-2.4 0-4.2 2-4.2 4.2 0 2.4 2 4.2 4.2 4.2 2.4 0 4.2-2 4.2-4.2 0-2.4-1.8-4.2-4.2-4.2zM473.6 87c0-.8-.8-1.6-2-1.8l-3.8-.6c-1-.2-2.2-1.2-2.2-2.2l-.6-3.8c-.2-1-1-2-1.8-2s-1.6.8-1.8 2l-.4 4c-.2 1-1.2 2.2-2.2 2.2l-3.8.6c-1 .2-2 1-2 1.8s.8 1.6 2 1.8l3.8.6c1 .2 2.2 1.2 2.2 2.2l.6 3.8c.2 1 1 2 1.8 2s1.6-.8 1.6-2l.6-4.2c.2-1 1.2-2 2.2-2.2l3.6-.2c1.2-.4 2.2-1.2 2.2-2zm-76-31.8c0-.8-.8-1.6-2-1.8l-3.8-.6c-1-.2-2.2-1.2-2.2-2.2L389 47c-.2-1-1-2-1.8-2s-1.6.8-1.8 2l-.4 3.8c-.2 1-1.2 2.2-2.2 2.2l-3.8.6c-1 .2-2 1-2 1.8s.8 1.6 2 1.8l3.8.6c1 .2 2.2 1.2 2.2 2.2l.6 3.8c.2 1 1 2 1.8 2s1.6-.8 1.6-2l.6-4.2c.2-1 1.2-2 2.2-2.2l3.6-.2c1.2-.4 2.2-1.2 2.2-2zm105 97.6c0-.8-.8-1.6-2-1.8l-3.8-.6c-1-.2-2.2-1.2-2.2-2.2l-.6-3.8c-.2-1-1-2-1.8-2s-1.6.8-1.8 2l-.6 3.8c-.2 1-1.2 2.2-2.2 2.2l-3.8.6c-1 .2-2 1-2 1.8s.8 1.6 2 1.8l3.8.6c1 .2 2.2 1.2 2.2 2.2l.6 3.8c.2 1 1 2 1.8 2s1.6-.8 1.6-2l.6-4.2c.2-1 1.2-2 2.2-2.2l3.6-.2c1.6-.4 2.4-1.2 2.4-1.8z"/><path class="st6" d="M455 143.4c-1.2 0-2-.8-2-2v-6.8c0-2.2-1.8-4-4-4h-27c-1.2 0-2-.8-2-2s.8-2 2-2h27c4.4 0 8 3.6 8 8v6.8c0 1.2-.8 2-2 2zm-87.6-12.8h-35c-1.2 0-2-.8-2-2s.8-2 2-2h35c1.2 0 2 .8 2 2s-1 2-2 2zm83.6 79.6c-1.2 0-2-.8-2-2v-36.6c0-1.2.8-2 2-2s2 .8 2 2v36.6c0 1.2-.8 2-2 2z"/><path class="st3" d="M393.2 106c2.8 0 9.2 2.4 11.2 7"/><path class="st7" d="M405 115c-.8 0-1.6-.4-1.8-1-1.8-3.6-7.8-5.6-9.8-5.6-1.2 0-2-.8-2-1.8s1-1.8 2-1.8c3.2 0 10.8 2.4 13.6 7.6.4 1 0 2-1 2.4-.4 0-.8.2-1 .2z"/><path class="st4" d="M379 220.6h30v12h-30v-12z"/><path class="st5" d="M455 116.6h-10v-10c0-1.2-.8-2-2-2h-4.4l-9.6-20c-.2-.6-2-4-4-4-.6 0-3.6 1.6-4 2l-22.8 15.2c-1.8-.4-3.6-.6-5.4-.6-1.2 0-2.6.2-3.8.4l-22-15s-3.4-2-4-2c-2 0-3.8 3.4-4 4l-9.8 20H343c-1.2 0-2 .8-2 2v10h-10.2c-6.6 0-11.8 5.4-11.8 12v14c0 4.4 2.4 8.4 6 10.4v69.6c0 6.6 5.2 12 11.8 12H449c6.6 0 12-5.2 12-12V153c3.6-2 6-6 6-10.4v-14c0-6.6-5.4-12-12-12zm-14-8v8h-25c-.6-2.8-1.6-5.6-3-8h28zM424.6 85l9.4 19.6h-24.2c-2-2-4.4-3.8-7-5L424.6 85zm-31.8 16.2c9.4 0 17.2 6.6 19.2 15.4h-38.4c2-8.8 9.8-15.4 19.2-15.4zM363 85l20.8 14c-3.2 1.2-6 3.2-8.2 5.6h-22L363 85zm-18 23.6h27.6c-1.4 2.4-2.6 5.2-3 8H345v-8zm112 114c0 4.4-3.6 8-8 8H336.8c-4.4 0-8-3.6-8-8v-68.2c.6.2 1.4.2 2 .2H455c.6 0 1.4 0 2-.2v68.2zm6-80c0 4.4-3.6 8-8 8H330.8c-4.4 0-8-3.6-8-8v-14c0-4.4 3.6-8 8-8H455c4.4 0 8 3.6 8 8v14z"/></svg>