<svg id="Layer_1" xmlns="http://www.w3.org/2000/svg" viewBox="0 0 300 300"><style>.st0{display:none;fill:none}.st1{opacity:.22}.st2{fill:#84dcf2}.st3{opacity:.3}.st4{fill:#1c1c1b}.st5{fill:#b4b4b4}.st6{fill:#3c3c3a}.st7{fill:#707070}.st8{fill:#fff}.st9{fill:none;stroke:#325975;stroke-width:2.31;stroke-linecap:round;stroke-linejoin:round;stroke-miterlimit:10}.st10{fill:#f29bb4}.st11{fill:#ef82a2}.st12{fill:none;stroke:#325975;stroke-width:1.925;stroke-linecap:round;stroke-linejoin:round;stroke-miterlimit:10}.st13{fill:#f7c3d2}.st14{fill:#f29101}.st15{display:none}</style><path class="st0" d="M0.2 -0.2H300.2V299.8H0.2z"/><g class="st1"><path class="st2" d="M160.2 92.2C132.8 101 46 57.9 52.8 116.8c1.1 8.8 6.7 21.1 1.9 29.3-3.5 6.1-9.8 9.7-15.9 12.1-16 6.5-21.9 18.7-17.9 36.1 10.8 46.9 69.7 35.7 100.6 21.9 22-10.3 47.9-12.1 70.7-3.4 17.8 7.1 29 22.1 49.9 17.7 18.6-3.7 21.4-21.3 15.9-37.6-3.1-10.1-5.3-14.4.8-24.1 5.1-9.7 14.2-17 14.9-28.3.2-12.3-5.5-24.7-16.4-29.3-8.9-3.8-17-2.3-25.9-4.6-19.7-5.5-32.3-36.1-56.7-25.6-6.1 2.9-9.5 9.5-16.1 11.4"/></g><g class="st3"><path class="st2" d="M150.3 88c2.5 0 2.5-3.8 0-3.8s-2.5 3.8 0 3.8zM36.2 147.2c5 0 5-7.7 0-7.7-4.9 0-5 7.7 0 7.7zm231.5 30.7c5 0 5-7.7 0-7.7s-5 7.7 0 7.7zM137.3 86.1c5 0 5-7.7 0-7.7s-5 7.7 0 7.7zm138.1 79.6c6.4 0 6.5-10 0-10s-6.5 10 0 10zm-252.2-5.8c6.4 0 6.5-10 0-10-6.4 0-6.4 10 0 10zm213.7-60.1c6.4 0 6.5-10 0-10s-6.5 10 0 10zm-88.6-20c7.4 0 7.4-11.5 0-11.5s-7.4 11.5 0 11.5zm131.2 94.9c3.7 0 3.7-5.8 0-5.8-3.7.1-3.7 5.8 0 5.8zM21.9 143.9c3.7 0 3.7-5.8 0-5.8s-3.8 5.8 0 5.8zm227-38.5c3.7 0 3.7-5.8 0-5.8s-3.7 5.8 0 5.8zm-.9-10.6c2.5 0 2.5-3.9 0-3.9s-2.5 3.9 0 3.9zM53 88.1c5 0 5-7.7 0-7.7s-5 7.7 0 7.7zm219 132.8c5 0 5-7.7 0-7.7-4.9 0-4.9 7.7 0 7.7zm-250.2 3.3c5 0 5-7.7 0-7.7s-5 7.7 0 7.7zM64.5 82.3c2.5 0 2.5-3.9 0-3.9-2.5.1-2.5 3.9 0 3.9zm208 123.2c2.5 0 2.5-3.8 0-3.8-2.5-.1-2.5 3.8 0 3.8zM33.3 229c2.5 0 2.5-3.9 0-3.9-2.5.1-2.5 3.9 0 3.9z"/></g><g><path class="st4" d="M88.3 164.2c-6.2 2.1-6.2-4.6-9.3-8.3-2.4-3-4.5-3.6-8.2-3.2-5.1.6-11.4.1-12.4-5.8-.6-3.6-.5-6.8-2.1-10.2-.8-1.7-3.3-.2-2.5 1.5 1.8 3.9.8 8.3 2.5 12.2 1.7 3.8 6.1 4.9 9.9 5.3 2.3.2 5.6-1 7.8-.3 3.4 1.1 4.5 5.6 6 8.4 2 3.9 4.9 4.6 9 3.2 1.8-.6 1-3.4-.7-2.8z"/><path class="st4" d="M57.8 132.9c-.9 1.1-1.9 1.8-3.2 2.5-1.3.7-.2 2.7 1.2 2 1.6-.8 2.9-1.8 4-3.3.4-.5.1-1.3-.4-1.6-.6-.4-1.3-.1-1.6.4z"/><path class="st4" d="M53.6 129.8c0 2.4.4 4.9.4 7.3 0 1.5 2.3 1.5 2.3 0 0-2.4-.4-4.9-.4-7.3 0-1.5-2.3-1.5-2.3 0z"/><path class="st4" d="M49.7 132.2c1.5 1.9 3.1 3.9 5.2 5.2 1.3.8 2.4-1.2 1.2-2-1.9-1.2-3.4-3.1-4.8-4.8-.9-1.2-2.5.4-1.6 1.6z"/><path class="st4" d="M47.8 135.6c2.1 2 4.8 2.7 7.7 1.8 1.4-.4.8-2.7-.6-2.2-2.1.6-3.8.2-5.4-1.2-1.1-1-2.8.6-1.7 1.6z"/><g><path class="st4" d="M206.4 171.4c.3-8 7.5-4 12.5-6 3.5-1.4 2.8-5.6 4.7-8.3 2.7-3.8 7.8-2.9 11.8-4.5 3.7-1.6 5-4.6 5.3-8.4.1-1.9-2.8-1.8-2.9 0-.5 6.7-5.7 5.9-10.7 7.4-4.1 1.2-6.2 3.8-7.5 7.7-.9 2.7-.8 3.4-3.8 3.7-2.3.2-4.6.1-6.8.6-4.2 1-5.2 3.9-5.4 7.9-.2 1.7 2.7 1.7 2.8-.1z"/><path class="st4" d="M233.9 140.5c1 2.4 2.7 4.1 5 5 .6.2 1.3-.3 1.4-.8.2-.7-.2-1.2-.8-1.4-1.5-.6-2.8-1.9-3.4-3.4-.2-.6-.8-1-1.4-.8-.6.1-1.1.8-.8 1.4z"/><path class="st4" d="M237.3 137.5v5.8c0 1.5 2.3 1.5 2.3 0v-5.8c0-1.5-2.3-1.5-2.3 0z"/><path class="st4" d="M241.2 138c-.7 2-1.9 3.5-3.6 4.9-1.2.9.5 2.6 1.6 1.6 2-1.6 3.3-3.5 4.1-5.9.6-1.4-1.6-2-2.1-.6z"/><path class="st4" d="M244 140.4c-1 1.6-2.6 2.6-4.3 3.3-1.4.6-.8 2.8.6 2.2 2.3-.9 4.3-2.2 5.7-4.4.8-1.2-1.2-2.4-2-1.1z"/></g><g><path class="st5" d="M220.1 213.2c0 2-15.1 2.6-16.8 2.6H90.2c-1.6 0-16.8-.6-16.8-2.6l13.8-20.7c0-2 1.3-3.7 3-3.7h113.2c1.6 0 3 1.6 3 3.7l13.7 20.7z"/><path class="st6" d="M123.5 208.6L94.4 208.6 99.5 196.3 125.8 196.3z"/><path class="st6" d="M170.1 208.6L199.2 208.6 194.1 196.3 167.8 196.3z"/><path class="st6" d="M202.4 208.6L212.6 208.6 204.3 196.3 196.5 196.3z"/><path class="st6" d="M91.2 208.6L81 208.6 89.3 196.3 97.1 196.3z"/><path class="st6" d="M167.5 208.6L126.1 208.6 128.4 196.3 165.2 196.3z"/><g><path class="st5" d="M83.5 198.5H210.1V200.4H83.5z"/><path class="st5" d="M82.1 203.2H211.5V205.1H82.1z"/></g><g><path class="st6" d="M220.9 218c0 1.6-.3 3-2 3H74.7c-1.6 0-2-1.3-2-3v-2.5c0-1.6.3-3 2-3H219c1.6 0 2 1.3 2 3v2.5z"/><path class="st7" d="M173.8 216.8c0 .9-.7 1.5-1.5 1.5h-51c-.9 0-1.5-.7-1.5-1.5 0-.9.7-1.5 1.5-1.5h51c.9 0 1.5.7 1.5 1.5z"/></g><g><path class="st6" d="M207.8 189.7c0 1.6-1.3 3-3 3H88.7c-1.6 0-3-1.3-3-3V114c0-1.6 1.3-3 3-3h116.1c1.6 0 3 1.3 3 3v75.7z"/><path class="st8" d="M146.8 115.1c1.6 0 1.6-2.5 0-2.5-1.6.1-1.6 2.5 0 2.5zm52.5 69.9c0 1.4-1.1 2.5-2.5 2.5H96.9c-1.4 0-2.5-1.1-2.5-2.5v-65.2c0-1.4 1.1-2.5 2.5-2.5h99.9c1.4 0 2.5 1.1 2.5 2.5V185z"/><path class="st9" d="M131.5 143.7L122.8 152.4"/><path class="st9" d="M131.5 152.4L122.8 143.7"/><path class="st9" d="M170.8 143.7L162.1 152.4"/><path class="st9" d="M170.8 152.4L162.1 143.7"/><g><path class="st10" d="M166.9 162.9v8.6c0 1.7-1.4 3.1-3.1 3.1h-1.7c-1.7 0-3.1-1.4-3.1-3.1v-8.6"/><path class="st11" d="M164.3 163.4L163 173.4 161.6 163.4z"/><path class="st12" d="M120.7 162.9L172.9 162.9"/></g><g><path class="st13" d="M112.2 161.6c5 0 5-7.7 0-7.7s-5 7.7 0 7.7zm69.3 0c5 0 5-7.7 0-7.7s-5 7.7 0 7.7z"/></g></g></g><g><path class="st14" d="M188 100.9v25.4c0 2.5 3.9 2.5 3.9 0v-25.4c-.1-2.5-3.9-2.5-3.9 0zm1.9 35.3c3.7 0 3.7-5.8 0-5.8s-3.7 5.8 0 5.8z"/></g></g></svg>