<svg xmlns="http://www.w3.org/2000/svg" width="512" height="512" viewBox="0 0 612 612"><path d="M501.68 352.983c-3.836 9.424-10.545 16.951-18.816 21.966h14.926c-3.018 35.899-14.734 69.34-33.049 98.23-15.988-3.948-32.709-7.376-50.068-10.198 3.633-28.439 5.793-57.891 6.465-88.031h14.035c-8.287-5.02-15.01-12.559-18.852-21.993-8.963-21.976-20.729-39.065-33.766-54.861.877 13.157 1.486 26.469 1.744 39.95h-84.027v-81.304c14.853-.333 29.453-1.114 43.875-2.163-9.4-10.952-18.314-22.589-26.051-35.541-5.943.263-11.809.658-17.823.799v-41.739c-1.49-5.299-2.828-10.757-3.848-16.54-3.528-20.004-3.197-40.282.334-59.956-5.538-.359-11.104-.608-16.732-.608-140.888 0-255.502 114.615-255.502 255.502S139.139 612 280.027 612c140.887 0 255.502-114.614 255.502-255.502 0-17.764-1.832-35.105-5.299-51.856-10.943 14.019-20.806 29.337-28.55 48.341zM168.75 168.447c-3.419 13.617-6.452 27.953-9.11 42.945a636.295 636.295 0 0 1-36.704-6.676 220.03 220.03 0 0 1 45.814-36.269zm-71.449 68.272c18.193 4.436 37.184 8.183 56.84 11.161-3.671 29.07-5.792 59.245-6.356 90.165H62.264c3.126-37.186 15.578-71.742 35.037-101.326zm-1.965 236.496c-18.329-28.898-30.054-62.352-33.072-98.265h85.586c.66 29.689 2.76 58.682 6.288 86.65-20.505 3.088-40.15 6.988-58.802 11.615zm24.79 32.117a628 628 0 0 1 39.537-7.247c2.935 16.501 6.334 32.218 10.197 47.103a220.061 220.061 0 0 1-49.734-39.856zm143.242 69.064c-17.032-1.291-33.535-4.495-49.263-9.481-7.11-21.38-13.071-45.267-17.792-71.394 21.968-2.212 44.394-3.525 67.055-3.965v84.84zm0-121.743c-24.543.458-48.834 1.909-72.615 4.357-3.336-26.467-5.342-53.925-5.996-82.061h78.611v77.704zm0-114.608h-78.679c.558-29.377 2.584-58.017 6.065-85.573 23.786 2.448 48.075 3.899 72.614 4.355v81.218zm0-118.121c-22.668-.44-45.1-1.755-67.079-3.967 4.438-24.619 9.975-47.167 16.514-67.436 16.122-5.224 33.058-8.596 50.565-9.923v81.326zm92.659 341.522c-17.631 6.56-36.328 10.884-55.755 12.677v-84.479c24.73.579 48.892 2.19 72.255 4.841-4.435 24.319-9.968 46.712-16.5 66.961zm22.084-103.452c-25.146-2.902-51.18-4.657-77.839-5.256v-77.789h83.96c-.664 28.447-2.709 56.232-6.121 83.045zm22.764 80.542c3.072-12.466 5.795-25.536 8.232-39.076a617.354 617.354 0 0 1 30.822 5.869 220.17 220.17 0 0 1-39.054 33.207zM446.494.593C371.197 7.71 319.629 80.669 332.77 155.151c13.348 75.657 83.102 98.946 117.721 183.872 3.119 7.653 13.895 7.69 17.014.037 38.375-94.192 119.971-112.575 119.971-210.589C587.475 53.391 523.07-6.646 446.494.593zm12.51 195.721c-37.469 0-67.844-30.375-67.844-67.844 0-37.469 30.375-67.844 67.844-67.844 37.471 0 67.844 30.375 67.844 67.844 0 37.469-30.373 67.844-67.844 67.844z" fill="#FFF" fill-opacity="0.1" /></svg>